<svg width="362" height="352" viewBox="0 0 362 352" fill="none" xmlns="http://www.w3.org/2000/svg">
<path d="M76.4043 90.1163C76.4202 90.3756 76.4765 90.7108 76.5471 90.8437C76.7386 91.2045 76.219 93.1599 75.8962 93.3313C75.7443 93.4119 75.2548 93.4527 74.773 93.4164C73.8006 93.3729 72.8957 93.7316 72.6784 94.2851C72.5514 94.5959 72.6848 94.9389 73.2535 95.7809C73.9937 96.9458 74.9653 100.105 74.8019 100.898C74.7396 101.102 74.4126 101.494 74.0351 101.792C72.9486 102.588 71.9945 104.871 72.0434 106.476C72.0669 107.437 71.9457 107.988 71.5931 108.516C71.2952 108.918 70.8997 110.053 70.693 111.039C70.3253 112.914 70.0071 113.277 69.2912 112.708C68.7318 112.251 67.9777 112.481 67.5716 113.183C67.2962 113.719 67.3288 113.872 67.9313 114.915C69.2977 117.305 69.2532 119.422 67.8052 120.775C66.902 121.595 66.314 121.542 65.7999 120.574C65.5781 120.156 65.211 119.694 65.0051 119.535C64.3306 119.09 62.8343 119.252 61.581 119.917C60.1189 120.693 59.9605 120.899 59.9685 122.015C60.0032 123.043 59.5611 123.448 58.6344 123.307C58.3449 123.266 57.8945 123.335 57.6287 123.476C57.3528 123.598 56.8556 123.716 56.5091 123.705C56.1626 123.695 55.4945 123.903 55.0097 124.136C54.0033 124.671 53.612 125.584 54.0455 126.401C54.3984 127.065 56.3091 128.509 57.3478 128.907C59.0374 129.568 60.0106 131.218 59.0042 131.752C57.9598 132.306 57.8858 134.001 58.8384 135.199C59.1159 135.538 59.7904 135.983 60.3629 136.191C60.9354 136.398 61.5025 136.778 61.6235 137.006C61.9057 137.538 61.6474 138.381 61.1347 138.653C60.66 138.905 59.2225 138.719 57.9601 138.221C57.0957 137.877 56.9035 137.881 55.9339 138.347C54.4795 139.047 53.7361 138.93 52.691 137.878C51.4086 136.563 48.7312 136.013 47.781 136.883C47.5644 137.071 47.2327 137.271 47.0405 137.276C46.7243 137.322 46.6839 137.246 46.6877 136.611C46.6672 135.381 46.1803 134.739 45.2862 134.751C44.5362 134.76 44.5172 134.77 44.4073 135.388C44.1232 137.145 43.7013 137.588 42.7753 137.082C42.0539 136.686 41.3211 137.002 41.8336 137.509C42.957 138.616 44.1613 139.097 45.272 138.896C45.6743 138.829 45.7728 138.923 46.0396 139.609C46.4309 140.667 46.8751 141.137 47.8255 141.46C48.7178 141.765 48.952 142.298 49.0032 143.999C49.045 145.315 49.3415 145.645 50.5252 145.673C51.7278 145.692 52.1306 146.038 52.6398 147.593C53.5617 150.292 52.5005 151.732 50.4248 150.619C49.3623 150.039 47.9236 149.805 47.354 150.107C46.7274 150.44 45.255 151.976 45.1024 152.423C44.8797 153.149 45.5884 154.209 46.4996 154.504C47.2074 154.737 47.2566 154.784 46.9943 155.069C46.7979 155.295 46.5576 155.301 46.1002 155.081C45.7401 154.908 45.3153 154.841 45.1254 154.942C44.9545 155.032 44.4257 155.824 43.9562 156.682C43.229 158.018 43.0237 158.273 42.4125 158.451C41.4103 158.764 41.2868 159.219 41.8917 160.358C42.2849 161.099 42.3411 161.434 42.1529 161.997C42.0472 162.393 41.7403 162.824 41.4745 162.965C40.677 163.389 40.6353 164.044 41.3126 164.999C41.86 165.755 41.8624 165.851 41.5365 166.291C40.9953 166.968 41.3019 167.317 42.5662 167.497C43.4348 167.62 43.837 167.553 44.6346 167.129C45.6789 166.575 46.363 166.625 46.4364 167.268C46.4613 167.498 46.2268 167.744 45.6572 168.047C44.6698 168.571 44.5327 168.863 44.3951 170.713C44.3279 171.503 44.0909 172.432 43.8778 172.764C43.6357 173.088 43.5032 173.572 43.5773 173.849C43.6953 174.346 45.8045 176.439 46.6623 176.909C47.3546 177.296 48.5835 178.785 48.743 179.407C48.8272 179.703 48.6746 180.149 48.4223 180.453C47.9089 181.091 47.9528 181.311 48.6559 181.351C49.2438 181.404 49.8238 182.313 49.7162 183.028C49.6586 183.423 49.3191 183.701 47.7354 184.615C45.9997 185.609 45.7137 185.713 44.6564 185.738C44.0026 185.745 43.0077 185.567 42.4631 185.321C41.4913 184.912 39.1383 184.652 38.6446 184.914C38.3408 185.075 38.9333 186.099 39.3972 186.194C39.6096 186.227 40.1767 186.608 40.6869 187.018C41.442 187.615 41.6312 187.88 41.7817 188.53C41.9547 189.315 42.004 189.362 43.0985 189.681C44.4156 190.053 44.6742 190.402 44.4508 191.495C44.3742 191.9 44.2921 192.48 44.2992 192.768C44.2908 193.21 44.0653 193.428 42.5497 194.378C40.9873 195.378 40.7202 195.471 39.9691 195.432C38.8324 195.354 37.8551 195.897 37.2371 196.98C36.6281 198.033 36.8333 198.557 38.0209 199.144C40.4253 200.326 40.6501 200.474 40.9941 201.168C41.1957 201.547 41.4121 202.138 41.4873 202.464C41.5952 202.942 41.7832 203.158 42.3088 203.415C42.6689 203.589 43.217 203.979 43.4745 204.281C43.8796 204.723 44.1121 204.794 44.6752 204.617C45.7735 204.302 46.1639 204.532 47.1638 206.095C47.9632 207.326 48.1501 207.494 48.8656 207.65C49.5039 207.798 49.7911 207.743 50.2724 207.365C50.6219 207.107 51.0307 206.914 51.204 206.919C51.7528 206.944 53.1782 208.208 53.6217 209.044C54.2165 210.164 55.1604 210.612 56.318 210.363C57.4655 210.094 58.6864 210.468 59.3513 211.308C59.8472 211.921 59.8495 212.017 59.4583 212.931C58.4918 215.099 58.5019 215.118 58.9211 216.137C59.1654 216.689 59.371 217.626 59.4243 218.231L59.4892 219.316L60.3885 219.909C61.082 220.344 61.3917 220.423 61.7525 220.232C62.2082 219.99 62.1969 219.923 61.646 219.023C60.9539 217.857 60.8812 216.849 61.4569 216.007C61.8285 215.469 61.9335 215.438 62.7036 215.467C63.7241 215.51 64.1193 215.154 63.8982 214.371C63.814 214.074 63.6682 213.616 63.5941 213.339C63.354 212.566 64.0904 212.394 64.9908 213.036C65.4114 213.324 65.9851 213.579 66.2254 213.573C66.4757 213.586 67.0192 213.785 67.4486 214.043C68.0347 214.414 68.3142 214.436 68.7699 214.194C69.5484 213.78 69.9233 214.166 69.7747 215.169C69.6683 215.932 69.7098 216.056 70.3421 216.742C70.7081 217.157 71.3356 217.651 71.6957 217.825C72.2504 218.09 72.4295 218.336 72.7378 219.146C73.0473 220.004 73.1659 220.136 73.7373 220.295C74.095 220.373 74.4427 220.432 74.5186 220.391C74.7655 220.26 77.7594 221.957 77.951 222.317C78.1728 222.735 78.7891 223.162 79.7217 223.544C80.5178 223.851 81.1056 224.683 80.7258 224.885C80.5929 224.955 79.9646 224.826 79.353 224.591C78.4014 224.22 78.1801 224.216 77.986 224.538C77.3289 225.593 77.9793 227.414 79.2992 228.295C79.5733 228.491 80.2928 229.204 80.877 229.892C82.1237 231.323 82.1172 231.448 80.712 232.194C79.9145 232.618 79.6742 232.624 78.6568 232.312C76.7281 231.705 76.35 232.368 77.7166 233.979C78.143 234.508 78.6466 235.043 78.8234 235.193C79.1478 235.483 80.0598 235.413 80.9356 235.045C81.5165 234.81 81.5455 234.819 81.9926 235.798C82.3087 236.531 82.7049 237.002 83.4992 237.627C84.8718 238.7 84.9625 238.871 84.764 240.193C84.663 240.782 84.6663 241.705 84.7564 242.242C84.8274 242.788 84.8171 243.548 84.7114 243.945C84.2173 245.765 84.8682 248 86.1602 248.92C86.5808 249.208 87.3394 249.95 87.8352 250.563C88.9556 251.939 90.0732 252.806 90.8053 252.856C91.1328 252.877 91.9261 252.675 92.583 252.399L93.7828 251.908L94.0484 252.546C94.3556 253.308 94.4517 253.305 96.5165 252.793C97.4439 252.569 98.3334 252.364 98.5244 252.311C98.7445 252.268 99.0793 251.798 99.3423 251.147C100.059 249.379 101.473 249.018 102.478 250.359C103.144 251.246 103.537 251.208 104.185 250.182C104.473 249.762 104.733 249.38 104.809 249.34C104.866 249.31 105.349 249.394 105.871 249.506C106.983 249.768 108.762 251.33 109.212 252.406C109.446 252.939 109.402 253.132 109.005 253.392C108.419 253.801 106.572 253.394 105.457 252.623C105.055 252.325 104.606 252.076 104.462 252.08C104.308 252.064 103.894 252.844 103.552 253.804C102.603 256.28 102.892 256.686 106.183 257.568C108.003 258.062 108.099 258.06 109.087 257.535C109.96 257.072 110.11 256.895 110.23 256.296C110.367 255.59 110.386 255.58 111.154 255.561C111.597 255.57 112.227 255.381 112.559 255.181C113.174 254.781 113.934 254.791 114.166 255.228C114.237 255.361 114.635 255.515 115.079 255.571C115.522 255.628 116.087 255.912 116.423 256.269C117.223 257.135 117.233 257.154 116.328 257.099C115.875 257.071 115.31 257.152 115.082 257.273C114.626 257.515 113.925 257.157 113.699 256.596C113.424 255.939 113.277 255.846 112.606 255.911C110.716 256.111 110.944 257.961 112.923 258.663C113.311 258.798 113.905 259.091 114.276 259.332C114.852 259.683 114.942 259.806 114.855 260.193C114.7 260.957 113.145 261.466 111.679 261.271C110.029 261.052 109.345 261.414 108.994 262.769C108.853 263.331 108.78 263.881 108.831 263.976C109.032 264.355 110.233 264.691 110.825 264.523C111.245 264.397 111.777 264.529 112.41 264.85L113.366 265.365L114.638 264.69C116.119 263.903 116.486 263.952 116.983 265.027C117.37 265.892 117.825 266.016 118.261 265.371C118.455 265.048 118.361 264.733 117.605 263.309C117.121 262.398 116.71 261.35 116.673 261.005L116.639 260.39L117.855 260.158C118.534 260.017 119.409 260.014 119.806 260.12L120.552 260.333L120.662 259.715C120.778 258.971 121.049 259.022 121.502 259.877C121.795 260.427 121.778 260.534 121.36 260.755C120.962 260.967 120.9 261.219 120.96 262.064C121.055 263.206 120.858 263.432 119.743 263.44C119.358 263.449 118.938 263.575 118.817 263.712C118.518 264.066 118.801 264.646 119.313 264.739C119.506 264.782 119.899 265.109 120.187 265.468C120.486 265.893 121.14 266.3 122.081 266.652C123.363 267.141 123.565 267.155 124.143 266.775C124.635 266.465 124.801 266.182 124.819 265.71C124.824 265.124 124.764 265.058 123.918 264.655C123.081 264.272 123.012 264.187 122.817 263.317C122.557 262.092 122.676 261.445 123.183 261.346C123.738 261.246 125.824 262.378 125.961 262.865C126.024 263.075 125.853 263.579 125.565 264C125.297 264.41 125.115 264.847 125.186 264.98C125.246 265.094 126.165 265.312 127.207 265.441C129.223 265.709 129.07 265.741 130.94 264.311C131.817 263.626 132.304 263.854 132.653 265.154C132.865 265.966 133.035 266.241 133.525 266.613C134.397 267.246 134.398 267.708 133.525 268.171C131.759 269.109 131.08 270.443 131.431 272.204C131.649 273.257 133.121 275.25 134.145 275.85C134.818 276.247 136.387 276.267 137.57 275.882C138.19 275.674 138.368 275.507 138.649 274.798C139.185 273.515 139.047 271.787 138.294 270.094C137.948 269.304 137.699 268.56 137.754 268.482C137.921 268.199 140.946 268.442 141.522 268.793C142.576 269.402 143.291 269.558 143.766 269.306C144.032 269.165 144.856 269.02 145.566 268.983C146.469 268.942 147.349 268.718 148.385 268.241C149.832 267.619 149.966 267.597 150.734 267.943C151.308 268.199 151.867 268.243 152.718 268.058C153.379 267.927 154.263 267.896 154.698 267.981C156.012 268.257 157.443 268.154 158.749 267.68C160.036 267.216 161.035 267.172 161.804 267.567C162.564 267.943 163.333 267.145 162.94 266.404C162.698 265.949 163.055 265.613 164.011 265.397C165.523 265.081 166.816 263.665 166.7 262.485C166.621 261.602 167.039 260.601 167.628 260.289C168.235 259.966 171.903 260.502 175.542 261.442C178.078 262.092 178.763 262.19 179.642 261.967C181.248 261.552 181.631 261.081 182.446 258.628C183.359 255.855 184.085 255.251 183.85 257.421C183.741 258.501 184.129 259.414 185.042 260.171C185.807 260.787 186.15 260.654 186.738 259.514C187.262 258.53 188.162 257.979 188.822 258.213C189.094 258.312 189.69 258.701 190.161 259.084C191.181 259.906 191.682 259.932 192.973 259.246C193.505 258.964 194.153 258.717 194.403 258.731C195.067 258.743 197.423 256.762 197.984 255.71C198.389 254.959 198.605 254.771 199.444 254.472C200.054 254.245 200.424 254.025 200.448 253.841C200.467 253.418 201.001 253.232 201.879 253.374C202.333 253.449 202.882 253.474 203.093 253.459C203.774 253.366 205.142 251.909 205.455 250.94C205.804 249.854 206.155 249.644 207.31 249.711C207.917 249.754 208.328 249.658 208.677 249.351C209.007 249.103 209.474 248.928 209.888 248.927C211.118 248.907 211.381 248.621 211.134 247.56C210.707 245.839 211.519 244.848 212.068 246.431C212.307 247.156 212.395 247.231 213.02 247.216C213.404 247.206 214.17 247.043 214.704 246.857C215.934 246.423 217.016 246.628 218.298 247.529C219.365 248.301 219.973 248.392 221.341 248.08C222.249 247.865 224.097 247.907 224.641 248.153C224.768 248.208 225.063 248.489 225.29 248.734C225.746 249.271 226.315 249.334 227.093 248.92C227.891 248.497 228.271 248.709 228.926 249.943C229.642 251.291 230.585 252.105 231.314 252.01C231.592 251.984 232.22 251.7 232.683 251.381C233.648 250.722 234.12 250.74 234.714 251.446C235.348 252.181 235.848 252.207 236.225 251.496C236.53 250.969 236.507 250.835 235.991 250.184C235.117 249.042 234.921 248.489 234.969 247.295C234.993 246.333 234.93 246.123 234.487 245.701C233.857 245.11 233.864 244.985 234.463 243.912C234.758 243.415 234.933 242.689 234.908 242.045C234.875 241.479 234.916 240.824 235.017 240.6C235.262 240.007 234.761 239.202 233.935 238.838C233.167 238.491 232.626 237.61 232.624 236.735C232.616 236.033 233.465 235.752 234.971 235.975C235.627 236.065 236.28 236.011 236.622 235.829C237.4 235.416 238.055 234.265 238.07 233.332C238.094 231.542 238.294 230.268 238.876 228.523C239.439 226.739 239.445 226.614 238.978 226.01C238.591 225.51 238.506 225.166 238.563 224.356L238.643 223.316L240.009 222.542C240.74 222.13 241.87 221.554 242.488 221.25C244.047 220.52 244.504 219.912 244.359 218.723C244.252 217.879 244.151 217.69 243.27 216.672C242.745 216.051 242.138 215.181 241.896 214.725C241.673 214.259 241.294 213.73 241.03 213.553C240.776 213.396 240.588 213.18 240.615 213.092C240.695 212.831 241.951 213.04 242.353 213.386C242.795 213.76 244.384 214.231 245.182 214.221C245.47 214.214 245.939 214.087 246.242 213.926C246.774 213.644 249.083 212.905 251.51 212.249C252.485 211.975 253.711 211.397 255.704 210.29C258.199 208.893 258.599 208.729 259.178 208.811C259.988 208.916 262.019 208.203 261.838 207.861C261.767 207.728 261.27 207.433 260.735 207.205C259.423 206.66 259.283 206.029 260.327 205.475C260.745 205.253 261.529 205.08 262.077 205.057C262.712 205.061 263.677 204.816 264.753 204.366C266.143 203.775 266.784 203.653 268.648 203.588C270.003 203.526 271.131 203.633 271.472 203.817C272.301 204.278 272.838 203.823 272.79 202.679C272.768 202.132 272.899 201.599 273.161 201.314C273.395 201.068 273.778 200.597 274.001 200.284C274.244 199.961 275.093 199.315 275.909 198.833C276.961 198.201 277.555 197.716 277.944 197.12C278.399 196.464 278.616 196.276 279.125 196.225C279.46 196.169 280.327 195.83 281.029 195.457C282.245 194.812 282.36 194.8 283.3 195.104L284.298 195.426L286.662 194.146C287.981 193.422 289.28 192.659 289.543 192.422C289.836 192.193 290.549 191.839 291.169 191.632C292.209 191.299 292.294 191.229 292.405 190.659C292.481 190.253 292.362 189.708 292.06 189.138C291.827 188.654 291.534 187.689 291.44 187.009C291.347 186.328 291.212 185.524 291.128 185.228C290.877 184.436 289.853 184.249 288.355 184.728C287.687 184.937 286.719 185.085 286.228 185.03C285.726 184.956 284.986 184.983 284.573 185.032C284.075 185.102 283.591 184.969 283.053 184.598C282.113 183.928 281.72 183.967 281.296 184.727C280.909 185.42 279.976 185.818 279.668 185.421C279.48 185.205 279.647 184.922 280.323 184.27C281 183.619 281.267 183.16 281.366 182.475C281.459 181.963 281.688 181.477 281.897 181.366C282.239 181.184 283.747 181.138 285.395 181.261L286.223 181.308L287.047 180.384C287.908 179.392 288.364 179.198 289.654 179.243C290.376 179.274 290.481 179.242 290.834 178.714C291.038 178.411 291.3 177.712 291.393 177.2C291.605 176.041 292.04 175.348 293.127 174.552C293.788 174.055 294.02 173.712 294.248 172.812C294.518 171.671 294.321 171.07 293.389 170.323C293.134 170.118 293.18 170.021 293.692 169.748C294.167 169.496 294.399 169.154 294.62 168.331C295.071 166.753 295.73 165.746 296.622 165.272C297.439 164.839 297.983 163.892 298.939 161.292C299.894 158.643 299.423 158.26 296.271 159.154C295.124 159.471 293.97 159.865 293.685 160.016C293.401 160.167 292.634 160.282 291.961 160.298C290.952 160.323 290.589 160.418 289.823 160.947C289.321 161.286 288.618 161.611 288.301 161.657C287.889 161.706 287.49 161.918 287.067 162.313C286.399 162.935 284.175 163.605 283.191 163.494C282.564 163.413 282.041 163.666 281.101 164.555C280.5 165.118 280.224 165.24 279.475 165.297C278.985 165.338 278.182 165.521 277.667 165.697C276.542 166.099 274.833 165.814 273.495 164.991C272.597 164.445 271.711 164.38 271.415 164.878C271.093 165.463 270.441 164.786 268.978 162.351C267.745 160.303 267.47 159.695 267.396 159.004C267.355 158.514 267.135 157.779 266.893 157.324C266.661 156.887 266.423 156.21 266.366 155.826C266.297 155.376 266.044 154.853 265.658 154.401C264.835 153.402 264.677 152.829 265.046 152.195C265.276 151.756 265.418 151.656 265.746 151.725C266.346 151.845 266.602 152.512 266.585 153.763C266.579 154.715 266.622 154.887 266.951 154.956C267.25 155.016 267.457 154.809 267.936 153.97C268.269 153.405 268.64 152.866 268.773 152.796C268.906 152.725 269.088 152.288 269.172 151.805C269.305 150.956 269.343 150.935 270.139 150.829C271.222 150.668 271.628 149.966 271.348 148.751C271.24 148.273 271.249 147.465 271.362 146.943C271.484 146.44 271.512 145.622 271.433 145.152C271.165 143.639 272.332 143.361 273.068 144.747C273.229 145.051 273.545 145.37 273.796 145.431C274.174 145.547 274.269 145.497 274.641 144.959C274.873 144.616 274.994 144.065 274.936 143.682C274.889 143.318 274.919 142.961 274.995 142.921C275.09 142.87 275.52 143.177 275.982 143.589C277.261 144.76 279.306 144.989 279.194 143.953C279.169 143.723 278.876 143.538 278.364 143.444C277.465 143.264 277.38 142.92 277.928 141.753C278.222 141.159 278.26 141.139 278.896 141.19C279.329 141.228 279.73 141.112 279.985 140.904C280.361 140.558 280.34 140.472 279.594 139.067C279.07 138.08 278.759 137.174 278.613 136.302C278.509 135.603 278.327 134.847 278.216 134.638C277.853 133.955 276.958 133.505 275.966 133.472C274.484 133.431 273.948 133.156 273.698 132.364C273.574 131.992 273.191 130.905 272.831 129.952C272.472 128.999 272.209 128.091 272.243 127.927C272.278 127.763 271.881 126.878 271.368 125.958C270.684 124.715 270.365 123.886 270.135 122.718C269.749 120.708 269.447 120.138 268.122 119.064C267.259 118.355 266.881 117.873 266.145 116.487C265.077 114.474 264.831 114.24 262.511 112.989C260.864 112.086 260.641 112.034 259.637 112.251C259.043 112.371 258.098 112.654 257.545 112.85C256.611 113.2 253.451 113.345 252.377 113.111C252.107 113.06 251.666 112.734 251.408 112.385C250.812 111.63 250.47 111.398 249.079 110.749C248.466 110.466 247.929 110.142 247.848 109.99C247.778 109.858 247.208 109.381 246.573 108.964C245.957 108.536 245.368 108.07 245.298 107.937C245.066 107.5 245.422 106.337 245.921 105.902C246.628 105.308 246.998 104.308 246.896 103.291C246.797 102.37 246.871 102.282 248.079 101.714C248.669 101.449 249.258 101.55 252.512 102.5C255.177 103.3 256.452 103.548 256.92 103.421C257.322 103.306 257.891 103.369 258.435 103.615C258.922 103.844 259.406 103.976 259.52 103.916C259.975 103.674 262.544 104.111 263.344 104.563C264.154 105.033 265.183 105.047 266.019 104.603C266.246 104.482 266.916 104.322 267.5 104.23L268.583 104.069L269.006 102.482C269.332 101.262 269.579 100.765 270.108 100.339C270.731 99.8621 270.846 99.8497 271.469 100.152C273.484 101.151 274.231 101.046 275.532 99.5525C276.823 98.088 277.259 97.808 278.314 97.6861C279.628 97.5482 279.798 97.4094 280.181 96.1594C280.378 95.5679 280.695 94.7908 280.85 94.4408C281.034 94.0997 281.142 93.3853 281.1 92.8478C281.049 92.3393 281.167 91.2785 281.351 90.5239C281.63 89.3534 281.622 89.0169 281.259 88.3334C280.704 87.289 280.055 87.0741 277.04 86.8976C275.48 86.8011 274.581 86.6211 274.296 86.3588C273.066 85.2348 272.208 84.3517 272.067 84.0859C271.986 83.9339 271.323 83.5558 270.594 83.237C269.856 82.9473 268.951 82.527 268.561 82.2961C267.468 81.6592 266.679 81.64 264.943 82.221C262.911 82.8862 262.205 83.5285 262.523 84.3575C262.678 84.7865 262.626 85.009 262.296 85.3055C261.411 86.0677 261.355 86.146 261.325 86.868C261.31 87.8494 260.821 88.6692 259.875 89.3174C258.929 89.9657 258.54 89.7828 258.522 88.6484C258.512 87.4849 258.063 86.8227 257.077 86.616C256.052 86.3813 255.178 86.797 254.662 87.7521C254.469 88.1223 254.028 88.5755 253.725 88.7368C253.402 88.9081 252.91 89.2664 252.61 89.5718C252.159 90.006 251.911 90.089 251.208 90.0485C250.524 89.9979 250.19 90.1022 249.595 90.5399C248.991 91.0067 248.331 91.1863 246.196 91.5655C244.721 91.8131 243.123 92.1503 242.608 92.3263C241.454 92.72 241.088 92.7193 239.099 92.364C238.22 92.222 237.293 92.0811 237.043 92.068C236.803 92.0739 236.239 91.8376 235.799 91.5598C234.617 90.8 234.205 90.8486 233.774 91.7343C233.226 92.9018 232.981 92.7154 231.933 90.3751C231.213 88.8347 230.993 88.0996 231.026 87.4736C231.059 86.4822 230.815 85.9304 230.082 85.4674C229.789 85.2822 229.433 84.887 229.253 84.5932C228.94 84.0046 228.21 83.2242 227.218 82.4117C226.375 81.7399 225.898 80.7032 226.002 79.8448C226.059 79.449 226.064 78.8623 226.027 78.5169C225.943 77.8554 225.515 77.6446 223.914 77.4722C223.529 77.4335 223.149 77.2216 223.007 76.9558C222.564 76.1203 221.208 74.9416 220.11 74.4779C219.507 74.2138 218.901 73.8054 218.78 73.5776C218.659 73.3497 218.027 72.6631 217.368 72.0637C216.502 71.2577 215.965 70.5687 215.411 69.5244C214.735 68.2522 214.557 68.0545 213.928 67.8776C213.337 67.6804 213.03 67.7456 212.176 68.1993C211.226 68.7033 211.143 68.8208 210.916 69.7688C210.776 70.3301 210.689 71.1304 210.738 71.5428C210.768 71.9652 210.749 72.3888 210.684 72.4962C210.63 72.6226 210.648 72.978 210.723 73.3031C210.828 73.6372 210.829 74.4643 210.74 75.1685C210.651 75.8727 210.62 76.5467 210.69 76.6796C210.912 77.0974 210.547 77.5102 209.232 78.3791L207.935 79.2378L206.387 78.8429C203.512 78.1053 201.952 78.4223 201.955 79.7109C201.956 80.538 201.815 80.6857 201.166 80.4708C200.856 80.3918 200.519 79.9864 200.166 79.3218C199.864 78.7522 199.516 78.2798 199.371 78.2834C198.89 78.247 197.876 79.272 197.542 80.1554L197.208 81.0387L196.397 80.9335C195.654 80.817 195.53 80.8585 194.805 81.5109C194.382 81.906 193.774 82.5941 193.448 83.0348C192.712 84.0337 192.357 84.052 192.074 83.1068C191.784 82.2387 190.842 81.4731 189.691 81.2319C188.754 81.024 188.411 81.1574 188.234 81.7869C188.028 82.4074 188.499 83.2038 189.257 83.5315C190.21 83.9506 190.588 84.8454 190.248 85.902C190.097 86.3962 189.877 86.8536 189.744 86.9241C189.44 87.0854 188.741 86.8236 187.919 86.2378C187.029 85.6152 186.546 85.9444 186.557 87.1559C186.57 88.0981 187.031 89.2409 187.488 89.4605C187.625 89.5341 188.175 89.6073 188.723 89.6323C189.917 89.6801 190.112 89.7715 191.562 91.2653C192.844 92.5804 192.857 92.6955 191.656 93.5519C190.399 94.4386 190.304 94.489 189.263 94.4086C188.058 94.2938 187.514 94.4609 185.261 95.5354C183.598 96.3454 183.397 96.3792 181.549 96.3378C179.933 96.3196 179.536 96.2139 179.218 95.7985L178.821 95.2792L177.323 96.1718C175.91 96.9949 175.757 97.0275 175.261 96.7799C174.959 96.6238 174.594 96.2577 174.433 95.9539C173.979 95.0994 173.454 94.891 172.46 95.1269C170.911 95.5109 170.574 95.4711 170.088 94.8771C169.831 94.5756 169.341 94.2029 169.02 94.0568C168.203 93.7113 167.989 93.2164 168.297 92.4203C168.659 91.4978 168.399 91.1002 167.815 91.605C166.176 93.0107 166.128 93.0118 163.188 92.3335C162.481 92.1488 161.963 92.1807 161.526 92.4126C160.653 92.8763 160.468 92.8039 159.112 91.6253C157.275 90.0448 157.42 90.0893 156.281 90.6942C155.541 91.0874 155.005 91.2255 154.321 91.1749C153.483 91.1088 153.317 91.0263 152.965 90.3617C152.612 89.6971 152.446 89.6146 151.201 89.4238C150.439 89.3174 149.301 89.1913 148.665 89.1395C147.21 89.0597 145.293 88.5198 144.181 87.893L143.313 87.4045L143.431 86.7092C143.522 86.1011 144.272 84.5343 145.465 82.5625C145.89 81.85 145.878 81.3695 145.393 79.9964C145.227 79.5004 145.237 78.7403 145.4 77.9477C145.672 76.8543 145.636 76.5571 145.222 75.7785C144.879 75.1329 144.475 74.7389 143.763 74.3139C142.183 73.4004 141.769 72.9873 140.766 71.3288C139.354 69.0359 139.275 68.932 138.629 69.2748C138.249 69.4764 138.092 69.7303 138.113 70.1818C138.1 70.8457 137.731 71.0663 136.058 71.4919C135.561 71.6098 135.421 71.8056 135.12 72.842C134.791 73.9656 134.795 74.1098 135.27 74.6849C136.381 76.0426 136.383 76.1388 135.563 77.2071C134.706 78.3436 134.82 78.6967 135.885 78.1802C136.825 77.7052 137.916 77.8805 138.395 78.5997C138.954 79.4228 138.551 79.8558 136.363 80.8229C133.955 81.8819 133.488 82.4223 133.483 84.2016C133.486 85.1248 133.293 85.8605 132.85 86.6311C132.519 87.2451 132.092 88.2749 131.925 88.9234C131.617 90.085 131.617 90.085 131.037 89.9549C130.717 89.8569 130.025 89.4699 129.525 89.0782C128.368 88.1832 127.632 87.9896 126.863 88.3738C126.036 88.7883 125.895 89.3015 126.346 90.4734C126.687 91.4364 126.635 92.4379 126.198 92.6698C125.856 92.8513 124.575 92.3632 124.363 91.9645C124 91.2809 124.085 90.4325 124.572 89.882C125.377 88.9679 125.468 88.7734 125.243 88.2114C125.109 87.8685 124.775 87.5593 124.25 87.3509C123.697 87.1336 123.333 86.8155 123.061 86.3028C122.658 85.5433 122.717 85.1956 123.355 84.5645C124.304 83.6469 124.171 82.5249 123.078 82.2535C122.662 82.1578 122.232 82.2645 121.491 82.6577C120.115 83.4126 119.804 84.0646 120.098 85.4904C120.22 86.1318 120.313 86.8123 120.308 86.9856C120.264 87.5444 117.74 90.1259 117.353 90.0391C116.648 89.9025 116.055 88.8783 116.2 88.0958C116.368 87.1299 115.956 86.3994 115.075 86.1613C114.213 85.9131 114.043 85.6383 113.941 84.2078C113.866 83.1037 113.846 83.0657 113.373 83.0003C113.112 82.9682 112.672 83.0559 112.368 83.2172C111.761 83.5398 111.215 83.2454 110.761 82.3909C110.479 81.8592 109.495 81.3351 109.134 81.5266C109.058 81.5669 108.789 81.9774 108.55 82.4449C108.017 83.4581 106.615 84.3002 105.66 84.1985C105.11 84.1254 105.031 84.0216 104.4 82.604C104.014 81.7863 103.594 80.7194 103.409 80.2335C103.087 79.2604 102.624 79.214 102.579 80.1383C102.526 80.7263 101.456 81.7815 100.701 81.9634C99.8883 82.1756 99.5725 82.6354 99.4553 83.7442C99.3328 85.0263 99.096 85.1764 98.583 84.256C98.0096 83.2217 97.4692 82.7541 97.0681 82.8697C96.791 82.9438 96.7856 83.117 97.0679 83.6487C97.451 84.3702 97.3422 85.0365 96.7304 85.5804C96.401 85.877 96.0356 85.8763 94.7476 85.5134L93.179 85.0805L91.9851 85.8117C90.4404 86.7535 90.3603 87.0151 91.4321 87.9795C92.0621 88.57 92.2613 88.8537 92.2707 89.2382C92.2647 89.7769 91.4118 90.6921 90.4434 91.2063C89.9877 91.4482 89.8025 91.7413 89.7015 92.3304C89.645 92.7742 89.3161 93.4843 89.0004 93.944C88.4692 94.6398 88.4359 94.8522 88.6748 95.5773C89.1942 97.1515 88.1719 99.3981 86.9503 99.3895C86.2965 99.3958 85.5812 98.4612 85.0529 96.9161C84.3172 94.7509 83.5288 94.3662 82.2214 95.5715C81.2155 96.5193 80.9426 96.3721 79.9244 94.4543C79.0877 92.8782 79.003 92.1686 79.6107 91.846C80.0094 91.6343 80.1313 90.7177 79.8389 90.167C79.4357 89.4075 78.8508 89.0852 77.9679 89.1644C76.8839 89.2775 76.4193 89.5485 76.4043 90.1163Z" fill="white"/>
<path d="M108.785 78.6691C108.673 79.1912 109.233 79.6968 110.024 79.7641C110.66 79.8159 110.679 79.8058 110.799 79.2066C110.962 78.414 110.892 78.2811 110.165 78.0584C109.467 77.8446 108.896 78.099 108.785 78.6691Z" fill="white"/>
<path d="M56.947 112.106C56.9439 112.375 57.2855 112.973 57.8923 113.794C58.7173 114.89 58.884 115.021 59.2447 114.829C59.9093 114.476 60.2769 113.38 59.9341 112.735C59.1679 111.292 56.9444 110.817 56.947 112.106Z" fill="white"/>
<path d="M114.714 83.1887C114.813 83.696 115.136 83.9382 115.497 83.7466C115.801 83.5853 115.695 82.7897 115.373 82.5956C115.012 82.3736 114.635 82.7194 114.714 83.1887Z" fill="white"/>
<path d="M56.0789 119.09C56.1985 120.049 58.0466 120.504 58.382 119.668C58.5637 119.231 58.0945 118.531 57.4728 118.277C57.0065 118.086 56.0393 118.648 56.0789 119.09Z" fill="white"/>
<path d="M31.1497 181.25C31.222 181.845 32.0352 182.46 32.434 182.248C33.0226 181.935 32.9391 181.274 32.2759 180.896C31.6038 180.547 31.0787 180.704 31.1497 181.25Z" fill="white"/>
<path d="M53.9627 211.978C54.3155 212.643 55.664 213.119 56.2716 212.797C56.8413 212.494 56.5792 212.001 55.5559 211.449C55.0493 211.182 54.5954 211.107 54.2334 211.25C53.7475 211.435 53.7207 211.522 53.9627 211.978Z" fill="white"/>
<path d="M55.5456 218.902C55.5942 219.315 55.9554 219.537 56.2972 219.355C56.696 219.144 56.6373 218.712 56.2292 218.539C55.7338 218.34 55.487 218.471 55.5456 218.902Z" fill="white"/>
<path d="M69.5021 222.908C68.5977 223.681 68.5787 223.691 68.8805 224.626C69.2753 225.828 69.993 226.859 70.6236 227.084C71.3705 227.345 74.1935 227.16 74.5318 226.835C74.6724 226.687 74.9354 226.036 75.0744 225.427C75.3559 224.352 75.3447 224.285 74.6662 223.282C73.5174 221.531 73.41 221.467 72.3539 221.54C71.2397 221.597 70.8599 221.798 69.5021 222.908Z" fill="white"/>
<path d="M291.288 137.483C291.14 137.708 291.013 138.019 290.997 138.173C290.96 138.607 291.67 138.936 292.126 138.694C292.638 138.422 293.149 136.861 292.816 136.648C292.504 136.472 291.631 136.936 291.288 137.483Z" fill="white"/>
<path d="M314.37 140.247C313.7 141.138 313.653 141.601 314.068 142.841C314.327 143.604 314.465 143.726 315.183 143.978C316.239 144.317 318.118 144.05 318.345 143.516C318.59 142.923 318.168 140.981 317.651 140.282C317.135 139.631 315.755 139.049 315.28 139.301C315.109 139.392 314.706 139.825 314.37 140.247Z" fill="white"/>
<path d="M251.448 226.619C251.325 227.901 252.785 228.221 253.517 227.078C253.943 226.414 253.785 225.841 253.096 225.598C252.349 225.337 251.515 225.829 251.448 226.619Z" fill="white"/>
<path d="M254.158 231.679C254.01 231.904 253.781 232.39 253.647 232.778C253.493 233.176 253.007 233.775 252.384 234.252C251.837 234.688 251.33 235.201 251.248 235.366C251.175 235.551 251.293 236.413 251.535 237.283L251.977 238.849L252.935 239.46C254.116 240.172 254.411 240.04 255.725 238.344C256.742 237.05 256.899 236.382 256.65 234.445C256.587 233.87 256.576 233.024 256.613 232.542C256.714 231.588 256.448 230.902 255.924 230.741C255.488 230.608 254.52 231.122 254.158 231.679Z" fill="white"/>
<path d="M135.268 295.846C135.147 296.397 135.103 296.956 135.174 297.089C135.345 297.412 136.555 297.719 136.916 297.527C137.371 297.285 137.52 296.282 137.167 295.617C136.401 294.174 135.653 294.279 135.268 295.846Z" fill="white"/>
<path d="M201.546 263.336C200.634 264.599 200.612 264.878 201.434 265.05C202.738 265.307 204.513 263.561 203.969 262.536C203.465 261.587 202.635 261.857 201.546 263.336Z" fill="white"/>
<path d="M270.574 230.047C269.63 231.157 269.254 231.916 269.455 232.296C269.738 232.827 271.88 234.295 272.321 234.255C272.503 234.231 273.008 234.402 273.418 234.671C273.838 234.91 274.246 235.083 274.341 235.033C274.587 234.902 275.3 232.163 275.239 231.635C275.145 230.955 274.192 230.122 272.999 229.709C271.708 229.25 271.21 229.32 270.574 230.047Z" fill="white"/>
<path d="M198.016 271.587C197.833 272.39 197.882 273.995 198.114 274.432C198.235 274.659 198.519 274.874 198.771 274.935C198.993 274.987 199.441 275.188 199.754 275.411C200.057 275.615 200.435 275.731 200.587 275.65C201.042 275.408 201.991 272.885 201.878 272.214C201.587 270.519 198.391 270.001 198.016 271.587Z" fill="white"/>
<path d="M141.113 304.378C140.501 305.336 140.601 305.891 141.482 306.495C142.989 307.545 144.998 305.966 144.172 304.409C143.97 304.029 142.115 303.286 141.811 303.447C141.716 303.498 141.409 303.928 141.113 304.378Z" fill="white"/>
<path d="M219.179 270.233C218.737 270.639 218.262 271.256 218.127 271.644C217.848 272.401 218.019 272.724 219.489 274.256C220.239 275.026 220.307 275.063 221.495 274.87C222.961 274.652 223.499 274.244 223.874 273.023C224.328 271.541 223.258 269.48 221.855 269.129C221.158 268.964 220.159 269.373 219.179 270.233Z" fill="white"/>
<path d="M259.47 254.612C258.961 255.441 258.947 256.057 259.391 256.893C259.844 257.747 260.26 257.843 261.229 257.329C262.653 256.573 263.014 254.823 261.899 254.052C260.862 253.337 260.107 253.519 259.47 254.612Z" fill="white"/>
<path d="M271.899 250.836C271.631 251.66 271.953 252.268 272.94 252.888C274.668 253.942 275.706 253.926 276.054 252.793C276.276 252.066 275.914 250.603 275.362 250.069C274.958 249.675 273.352 249.675 272.592 250.079C272.289 250.24 271.96 250.584 271.899 250.836Z" fill="white"/>
<path d="M235.557 285.539C235.382 286.264 235.761 287.621 236.324 288.222C236.729 288.664 236.826 288.662 238.121 288.169C239.884 287.501 240.015 287.334 239.541 286.441C238.815 285.074 238.06 284.477 237.196 284.546C236.131 284.649 235.705 284.9 235.557 285.539Z" fill="white"/>
</svg>
